<?xml version="1.0" encoding="UTF-8"?>
<svg id="Layer_2" data-name="Layer 2" xmlns="http://www.w3.org/2000/svg" viewBox="0 0 576 612">
  <defs>
    <style>
      .cls-1 {
        fill: none;
        stroke: #565352;
        stroke-miterlimit: 10;
      }
    </style>
  </defs>
  <polyline class="cls-1" points="251.2 289.1 255.7 288 257.9 288.5 260.6 289.9 262.3 291.6 272.2 299.6 273.2 300.3 274.2 300.6 275 300.8 297.1 317 298.3 318 298.8 319 299.4 320.9 300.1 321.9 307.1 327.2 310.7 330.1 312.8 332.7 315.9 337 318.3 339.2 320 340.5 321.1 341.2 326.6 344.2 328.3 345 330.1 345.1 332.3 345.2 335.6 345.7 337.8 346.8 388.1 381.3 391.8 384.3 394.3 387 395.4 388.4 396.4 388.8 399.7 389.1 401.3 389.9 404.9 392.7 410.1 396.8 412.2 398.4 412.6 399.5 417.5 403.3 421 405.8 425.2 408.2 436.1 416.7 438.2 418 441.5 419.5 443.9 420.7 445.8 422 447.8 424 454.5 430.2 456.7 431.3 461 432.1 462.4 432.5 465.1 434.4 467.1 435.8 468.2 436.6 477.3 443.1 486.1 448.8 499.7 458.5 501.8 460.6 502.8 462 503 463.1 503.3 464.5 502.7 466.4 498 472.9 494.4 475.9 490.2 480.6 486.6 483.8 482.8 486.4 480 488.1 452.1 501.3 450 501.7 447.7 501.3 445.9 500 444.9 498.4 443.7 495.8 442.2 493.8 440.1 491.9 436.6 489 435.1 487.8 434.3 486.7 434.5 485.1 435.5 483.3 438 479.7 439.6 477.4"/>
  <polyline class="cls-1" points="194.2 292.5 187.4 291.6 185.9 292.5 183.4 293.6 172.7 290.4 171.2 288.7 170.9 287.3 168.7 285.8 167 284.7 164 282.4 162.1 280.9 159.6 278.5 156.7 274.2 154 270.3 149.4 261.5 146.8 255.1 141.5 242.3 131.5 218.2 126.7 206.6 119.9 190.3 110.7 168.2 109.2 164.7 105.7 156.8 97.2 144.9 90.7 139.5 81 135.8 63.1 137.6 61.6 137.1 60.8 135.7"/>
  <polyline class="cls-1" points="256.1 272.5 249.1 274.2 238.2 276.9 236.2 278.6 233.1 280 230.7 280.7 227.7 280.7 222 281.9 218.1 283.5 213 287.3 209.2 289.9 206.2 291.1 203.2 291.8 194.2 292.5"/>
  <polyline class="cls-1" points="142.1 294.3 146.5 294.2 149.4 294.2 154.6 293.1 157.2 291.4 158.1 290.2 161.8 285.6 164 282.4"/>
  <line class="cls-1" x1="145.1" y1="297.1" x2="146.5" y2="294.2"/>
  <polyline class="cls-1" points="154.6 293.1 158.8 296.5 161.8 299 164.3 301.1 167.4 303 173 304.7 180.9 306.2 190.9 308.1 199.7 308.4 212.5 305.4 225.5 300.4 232 297.4 233.3 296.8 237.6 296.1 244.2 292.2 251.2 289.1"/>
  <polyline class="cls-1" points="171.2 288.7 169.9 291.1 167.2 295.9 164.3 301.1 161.8 302.8 159.8 305.1 159.1 308.2 158.6 326.1 158.2 338.7 158 345.8 157.5 380.5 157.8 384.3 160.3 391.4 162 395.5 162.9 397.7 164.7 402.2 170.9 417.1 176.9 431.3 183.7 447.6 184.1 448.4 185.4 451.7 186.9 455.2 187.4 456.4 192.2 467.9 196.8 479 197.2 479.9 199.2 483.8 200.1 485.4 204.4 489.1 208 489.3 215.1 493.9 215.9 497.6 218.6 499.5 221.2 501.3 227.1 505.3 230.2 504"/>
  <polyline class="cls-1" points="180.9 306.2 182.3 311.3 182.4 313.5 182.6 317.2 182.4 320.6 181.5 341.5"/>
  <line class="cls-1" x1="181.5" y1="341.5" x2="182.9" y2="339.8"/>
  <line class="cls-1" x1="184.1" y1="312.2" x2="182.4" y2="313.5"/>
  <polyline class="cls-1" points="186.5 354.1 188.7 373.6 203.6 384.7 214 392 226.2 400.5 234.6 406.3 244.2 413.1 259.1 423.6 276.2 435.7 285.9 442.5 301.8 453.9"/>
  <polyline class="cls-1" points="170.9 417.1 180.6 413.5 181.8 412.4 185.5 407.5 190.1 401.3 191.7 399.2 192.3 397.1 192.8 395.6 196.8 390.8"/>
  <line class="cls-1" x1="214.2" y1="384.5" x2="209.4" y2="391.1"/>
  <polyline class="cls-1" points="162.9 397.7 164.4 395.5 166.5 394.1 185.5 407.5"/>
  <polyline class="cls-1" points="148.1 358.9 148.2 369.8 148.9 374.7 150.9 381.6 158.9 399.2 173.2 432.9 181.8 454.2 183 456.9 185.3 462.6 187 466.6 198.1 492.4 208.7 499.6 213.6 500.9 219.2 508 260.2 536.2 278.4 548.9 279.8 547 292.6 555.9 300.2 572.5"/>
  <polyline class="cls-1" points="183.7 447.6 189.5 445.2 193.7 443.5 204.8 439 194 413.7 202.1 409.8"/>
  <line class="cls-1" x1="190.1" y1="401.3" x2="202.1" y2="409.8"/>
  <polyline class="cls-1" points="193.7 443.5 184.8 422.7 185.2 421.1 185.2 417.9 183.9 415.4 180.6 413.5"/>
  <polyline class="cls-1" points="212 395 214 392 220.8 382 224.2 377.2 228.1 371.6 229 369.4 229.1 365.8 228.6 361.9 229.2 360.3 227 358.6 227.8 357.8 230.5 353.7 233.7 352.1 235.8 351.9 237.5 352.6 244.9 358 253.7 364.3 254.5 365.7 254.7 367.8 254.2 369.2 250.4 374.9"/>
  <polyline class="cls-1" points="214 392 229.6 390.5 231.2 389.5 233.7 385.5 235.6 382.4 238.8 378.9 239.4 377.9 240.2 376.5 241.4 374.6 242.3 372.5 243.6 371.8 245.8 372.7 250.4 374.9 251.7 376.9 253 382.4 248.1 390 247.5 391.4"/>
  <polyline class="cls-1" points="240.2 376.5 253.7 386.2 258.4 389.3 259.6 390 283.6 405.4 286.3 406.7 287 407.6"/>
  <polyline class="cls-1" points="226.2 400.5 228 397.8 228.6 394.9 229.6 390.5"/>
  <polyline class="cls-1" points="196.8 479 202.5 476.9 234.1 463.6 238.3 461.8 244.5 459.3 246.5 455.6 257.1 451.3 258.2 453.7 259.1 453.3 265.3 450.7 272.2 441.2 275.5 436.6 276.2 435.7"/>
  <polyline class="cls-1" points="210.5 427.8 222.4 423.5 224.6 423.1 227.9 423.3 241.5 424.8 246.7 426 250 428.1 254 430.6 255.2 429 259.1 423.6"/>
  <polyline class="cls-1" points="255.2 429 268.1 438.3 272.2 441.2"/>
  <polyline class="cls-1" points="187.4 456.4 193.2 454 247.8 431.2 249 429.5 250 428.1"/>
  <polyline class="cls-1" points="186.9 455.2 185 456.1 183 456.9"/>
  <polyline class="cls-1" points="187 466.6 174.5 471.6 169.5 459.4 165.5 449.9"/>
  <line class="cls-1" x1="169.5" y1="459.4" x2="153.4" y2="466.1"/>
  <line class="cls-1" x1="268.1" y1="438.3" x2="275.5" y2="436.6"/>
  <polyline class="cls-1" points="238.3 461.8 241.2 468.4 241.2 469.8 240.6 471.2 240.1 471.8 239.4 472.6 238.6 475.4 237.2 478 229.7 488.9 222.9 498.8 221.2 501.3"/>
  <polyline class="cls-1" points="222.9 498.8 230.2 504 247.4 516 265.6 528.8 270.1 531.9"/>
  <polyline class="cls-1" points="225.8 477.2 236.4 472.1 239.4 470.6 240.1 471.8 257.2 484.2 257.7 485.9 259.5 497.2 259.1 499 247.4 516"/>
  <polyline class="cls-1" points="259.1 453.3 262 455.3 271.5 462 282.9 470.1 298.6 481.2"/>
  <line class="cls-1" x1="271.5" y1="462" x2="285.9" y2="442.5"/>
  <line class="cls-1" x1="265.3" y1="450.7" x2="262" y2="455.3"/>
  <polyline class="cls-1" points="254.6 544 260.2 536.2 262.7 532.8 265.6 528.8 293.5 488.3 294.7 486.8 298.6 481.2 302.9 475.1 305.6 472.4 308 467.8 312.4 461.4 315.1 457.5 321.1 448.7 330.9 435 335.7 428.2 337.6 425.5 339.9 422.4 342 419.3 344.9 415.1"/>
  <polyline class="cls-1" points="305.2 457 304.5 457.3 303.7 457.4 302.9 457.2 302.3 456.8 301.8 456.2 301.5 455.4 301.5 454.6 301.8 453.9 302.3 453.3 302.9 452.9 303.6 452.7 304.4 452.7 305.1 453 305.7 453.5 306.1 454.2 306.2 455 306.1 455.7 305.8 456.4 305.2 457"/>
  <polyline class="cls-1" points="305.8 456.4 310.2 459.7 312.4 461.4 324 465.2 329.2 465.3 332.3 465.8 335.4 472.8 336.7 477.4 338.8 479.8 341 481.3 343.2 482.7 351.5 488.5 353.1 489.6 363.9 497.1 379.5 507.9 388.2 495 392.9 488.2 377.9 477.7 373.1 474.6 383.9 458.4"/>
  <polyline class="cls-1" points="302.9 475.1 300.9 470 300.8 469.1 300.2 464.5 300.4 460.6 301.8 456.2"/>
  <polyline class="cls-1" points="282.9 470.1 293.8 470.3 300.8 469.1 308 467.8"/>
  <polyline class="cls-1" points="287.5 420.6 306.3 434.5 307.7 436.3 309.3 438 313.7 440.8 316.2 445.2 321.1 448.7 330.1 454.8 340.7 462 347.4 466.6 350 468.3"/>
  <polyline class="cls-1" points="309.3 438 312.4 448.2 315.1 457.5"/>
  <polyline class="cls-1" points="302.9 452.9 304.2 448 305.5 446.2 307 444 307.6 441.7 307.7 436.3"/>
  <line class="cls-1" x1="310.2" y1="459.7" x2="312.4" y2="448.2"/>
  <polyline class="cls-1" points="305.7 453.5 312.4 448.2 316.2 445.2 325.9 431.4 332.6 422 337.6 425.5 360.2 441.6 365.7 445.5 366.9 446.3 383.9 458.4 384.5 458.9"/>
  <polyline class="cls-1" points="256 551.1 256.7 549.6 256.9 548 256.6 546.4 255.8 545 254.6 544 253 543.3 251.3 543.2 249.7 543.7 248.3 544.7 247.3 546 246.9 547.7 247 549.4 247.7 551 248.8 552.2 250.2 553 251.8 553.2 253.4 553 254.9 552.3 256 551.1"/>
  <polyline class="cls-1" points="215.9 497.6 214.8 499.2 213.6 500.9"/>
  <polyline class="cls-1" points="315.3 509.7 310.7 520.9 310.6 522.4 311.1 523.4 314.5 525.8 321.6 530.8 322.7 531 323.9 530.8 333.8 527"/>
  <polyline class="cls-1" points="355.6 501.8 349.7 500.5 342 497.4 335.7 493.4"/>
  <polyline class="cls-1" points="314.5 525.8 326.7 552.4 328.2 555.6"/>
  <polyline class="cls-1" points="326.7 552.4 354.4 539.7 356.6 537"/>
  <line class="cls-1" x1="335.7" y1="493.4" x2="343.2" y2="482.7"/>
  <polyline class="cls-1" points="341 481.3 350 468.3 365.7 445.5"/>
  <polyline class="cls-1" points="312.4 461.4 322.6 457.6 330.1 454.8 338.4 451.2 342.9 449.2 360.2 441.6 362.4 440.6 364.6 439.6 366 438.9 368 438 371.2 435.1 382.8 424.8 394.3 414.5 412.2 398.4 413.5 398 415.1 397.1 418.8 393.5 423.2 389.3 424.9 387.7 421.9 385.6 420.1 384.4 417 382.2 414.9 380.6 414.9 377.8 415.9 375.9 417.6 371.2 418.4 366.5"/>
  <polyline class="cls-1" points="332.3 465.8 340.7 462 344.4 459.1"/>
  <polyline class="cls-1" points="335.7 428.2 340.2 441.4 342.9 449.2 346 450.9 348.3 452.9 349.4 454.6 350 456.4 350.2 458.9 350.3 460.5 349.5 463.1 347.4 466.6"/>
  <line class="cls-1" x1="350.2" y1="458.9" x2="338.4" y2="451.2"/>
  <polyline class="cls-1" points="325.9 431.4 330.9 435 340.2 441.4"/>
  <polyline class="cls-1" points="363.9 497.1 372.9 484.6 377.9 477.7"/>
  <line class="cls-1" x1="372.9" y1="484.6" x2="388.2" y2="495"/>
  <polyline class="cls-1" points="349.2 378.4 338.9 392.7 337.3 394.5 335.7 396 333.4 398.7 330.5 403.1 328.2 404.1 327.4 406.2 327.4 408 328.5 409.6 342 419.3 352.4 426.7 358.2 430.8 359.1 431.8 360.1 432.7 361.4 434.1 364.7 436.5 365.6 437.2 366.5 437.5 368 438 371.3 440.3 386 450.4 403.6 462.4 418.5 473.1 429.3 480.5 431.1 482.9 433 484.1 434.5 485.1"/>
  <polyline class="cls-1" points="425.8 481.2 427.4 481.1 429.3 480.5 434 478.5 434.9 477.3 449.4 456.5 449 450.9"/>
  <polyline class="cls-1" points="438 479.7 436.8 478.8 434.9 477.3"/>
  <polyline class="cls-1" points="501.8 460.6 505.5 455.3 509.7 449.1 511.8 449.2 512.9 450.1 517.1 453.3 522.4 457.5 522.9 459.3 518.8 465 514.6 471 507.7 466.3 503 463.1"/>
  <polyline class="cls-1" points="358.2 430.8 386.1 406.6 388.7 404.3 392.1 401.4 400 394.5 401.1 392.7 401.4 391.4 401.3 389.9 400.9 387.8 401.1 387 405.3 383.8 408.9 381 410.4 381"/>
  <polyline class="cls-1" points="352.4 426.7 357.6 419.2 358.5 416.7 359.8 414.2 365.1 406.5 368 403.7 371.8 398.1 372.4 396.8 372.4 394.9"/>
  <polyline class="cls-1" points="394.3 414.5 392.6 412.5 391.2 411 387.8 408.1 386.1 406.6 385.3 404.9 384 403 372.4 394.9 349.2 378.4 348.7 378.1"/>
  <polyline class="cls-1" points="335.7 396 341.5 401.2 344.7 404.1 347.3 405.8 349.8 407.3"/>
  <polyline class="cls-1" points="324.3 403.4 327.3 398.8 327.3 398 326.6 397.2 305.5 383.1 299.4 378.6 279.2 364.5 265.4 354.3 264.3 355.9 252.2 347.4 236 336.6 234.4 334.5 234.4 330.2 236.3 325.6 236.4 323.4 235.5 321.4 233.5 319.7 225.9 315.1"/>
  <line class="cls-1" x1="244.9" y1="358" x2="252.2" y2="347.4"/>
  <line class="cls-1" x1="287" y1="407.6" x2="292.3" y2="406.4"/>
  <polyline class="cls-1" points="288.7 404.9 301.8 386.4 303.5 384.5 305.5 383.1"/>
  <polyline class="cls-1" points="299.4 378.6 300.7 376.7 318.7 350.7 318.9 349.3 319.3 344 321.1 341.2"/>
  <polyline class="cls-1" points="273.5 321.4 281 326.6 283.8 328.6 311.5 347.7 314.2 349.6"/>
  <polyline class="cls-1" points="258.4 389.3 267.9 374.9 270.4 376.6 278.7 364.1"/>
  <polyline class="cls-1" points="265.4 354.3 266.7 352.7 281.6 331.7 283.8 328.6"/>
  <line class="cls-1" x1="322.5" y1="336.6" x2="320" y2="340.5"/>
  <line class="cls-1" x1="333.1" y1="321.7" x2="335.8" y2="317.7"/>
  <polyline class="cls-1" points="252.5 312.5 255.7 288 255.3 285.2 262.6 283.2 269.7 281.2 272.3 279.8"/>
  <line class="cls-1" x1="273.2" y1="300.3" x2="281" y2="326.6"/>
  <polyline class="cls-1" points="167 284.7 167.1 283.6 166.6 282.6 165.2 282 163.7 280.7 162.7 278.4 162.8 276.4 164 273.7 166.1 272.1 168.3 271.7 171.5 272.4 173 274.6 173.4 277.8 172.5 282.9 170.9 287.3"/>
  <polyline class="cls-1" points="166.1 272.1 159.8 267.9 158.7 265.6 152.5 250.9 151.4 250.3 150.4 250.9 146.8 255.1"/>
  <line class="cls-1" x1="159.8" y1="267.9" x2="154" y2="270.3"/>
  <polyline class="cls-1" points="149.9 225.4 152.4 229.3 154.6 231.1 159.2 234 161.2 235.7 162.6 237.8 163.5 241.1 163.7 245.4 164.6 248.2 166.4 249.9 169.1 250.9 172.9 250 179.1 249.6 183.4 249.3 185.7 249.9 187.7 251.7 188.2 253.6 188.8 256.5"/>
  <polyline class="cls-1" points="179.1 249.6 178.4 247.3 177.6 246 172.5 242.4 170.2 239.4 169.3 235.5 169.6 230.9 169.6 219.3 168.4 214.9 166.3 211.4 162.6 208 159.5 205.1 157.5 202.5 154.5 196.3 153.4 194.1"/>
  <polyline class="cls-1" points="149.6 222.1 148.4 217.5 147.5 210.7 145.8 205 144.4 200.9 143.9 199.5 143.5 198.5 140.7 189.3 138.5 182.9 129.8 162.1"/>
  <line class="cls-1" x1="144.4" y1="200.9" x2="154.5" y2="196.3"/>
  <line class="cls-1" x1="143.9" y1="199.5" x2="126.7" y2="206.6"/>
  <polyline class="cls-1" points="192.6 202.1 193.5 206.3 198.9 216.6 204.9 225.8 207.9 232.1 214.1 239.3 224 249.1 227.5 252 243.3 263.3 250.3 268.3 252.4 269.9 256.1 272.5 262.5 275.4 270.2 278.9 272.3 279.8 280.5 283.2 282.3 284.3 283.8 285.7 288.1 290.5 289.7 291.5 294.2 293 300.6 295.2 315.7 287.6 316.4 287.3 319.8 285.6"/>
  <polyline class="cls-1" points="250.3 268.3 250.4 253.2 250.4 247.4"/>
  <polyline class="cls-1" points="277.6 223.9 250.4 247.4 231.3 227.3 228.7 224.5"/>
  <polyline class="cls-1" points="231.3 227.3 248.2 212.3 251.2 209.6"/>
  <polyline class="cls-1" points="244.1 201.5 247.1 199.3 250.7 197.7 253.3 203.7 254.4 204.6 272.2 219.1 275.8 221.5 280.4 223 284.5 225.8 289.5 231.1 296.8 231.4"/>
  <polyline class="cls-1" points="254.4 204.6 260.9 201.5 266 199"/>
  <polyline class="cls-1" points="260.9 201.5 257.8 194.7 264.4 190.2 298.3 174.5"/>
  <polyline class="cls-1" points="280.4 223 285.7 222.9 292.1 221.1"/>
  <polyline class="cls-1" points="287.9 279.3 292.3 289 294.2 293"/>
  <line class="cls-1" x1="288.1" y1="290.5" x2="292.3" y2="289"/>
  <polyline class="cls-1" points="305.8 258.8 311 256.5 313.2 256 316.6 255.9 321.9 256.3 335.1 258.3 337.1 256.2 338.9 255.8 341.5 255.1 356.7 248"/>
  <polyline class="cls-1" points="326.9 266 330 264.3 332.8 261.7 335.1 258.3"/>
  <polyline class="cls-1" points="359.5 207.6 387.7 216.7 391.1 217.8 392.6 218.5 393.8 221"/>
  <polyline class="cls-1" points="390.6 227 388.9 223.3 387.3 219.9 387.2 218.5 387.7 216.7"/>
  <polyline class="cls-1" points="388.9 223.3 393.8 221 425.3 206.2"/>
  <polyline class="cls-1" points="300.6 295.2 301.5 297.6 302.7 299.3 312.3 306 314.8 308.2 318.2 312.6 320.5 314.8 325.7 318.2 328 318.3 329.9 317.2 331.7 315.3 333.4 313.5 334.4 310.8 337 298.6 344.8 295 359 305.6 359.8 306.2 359.1 308 358.3 309.8 357.6 312.3 357.6 315.5 358.3 318.5 360.1 321.7 363.5 325.1 387.5 341.9 389.2 343.5 390.3 344.6 401.3 355.7 404.3 357.8 418.4 366.5 423 369.9 423.6 371.5 423.9 372.4 423.4 372.8 421.4 374.6 414.9 380.6 413 381.4 410.4 381"/>
  <line class="cls-1" x1="315.7" y1="287.6" x2="321.8" y2="300.5"/>
  <polyline class="cls-1" points="401.9 238.7 403.6 241.3 405.3 242.9 407.3 243.6 409.4 243 430.7 234.5"/>
  <polyline class="cls-1" points="421 257.4 402.4 265.1 400.9 267.8 382.3 275.6 385.5 284.9 385.6 287.1 386.6 293.8"/>
  <polyline class="cls-1" points="331.7 315.3 335.8 317.7 340.4 320.9 341.6 322.4 342 324.7 342.6 327.1 344.1 329.7"/>
  <polyline class="cls-1" points="486.5 244.2 483 244.6 481 244.8 450.2 253.9"/>
  <polyline class="cls-1" points="444.1 255.7 441.5 256.5 437.8 254.6 436.9 251.5"/>
  <polyline class="cls-1" points="434.9 245.6 433.3 239.8 433 235.3 429.3 214.3 428.2 211.8 427.4 210 425.3 206.2"/>
  <polyline class="cls-1" points="428.2 211.8 433.2 210.6 437.9 210.2 443.6 211.3 457.5 216 462 218.7 465.8 221.5 470.3 225.6 476.1 232.6 478.9 237 480.5 242 481 244.8 481.4 247.5 481.1 251.8 480.5 260.4 480.9 266.6 482.1 271.5 484.7 277.8 489.4 285.2 493.6 289.6 496.4 292.9 498.6 296.2 500.4 299.9 501.8 304.4 502.4 309.4 502.4 313.8"/>
  <polyline class="cls-1" points="506.1 302.8 504.2 297.5 501.7 292.5 500.5 290.3 499.4 288.2 486.5 244.2 483.4 234.4 482.7 232.3 482.9 230.8 483.7 229.4 484.2 227.7 484 225.8 483.1 224.1 475.4 216.8"/>
  <polyline class="cls-1" points="389.2 343.5 390.2 342 394.6 335.6 401.2 326.1 410.4 313.1 418 318.8 420.2 319.2 421.7 317.9 423.7 314.8 424.5 314.1 425.5 314.3 429.2 316.9 429.9 318.2 430.1 320.1 430.5 320.9 431.6 321.8 435.8 325.3 447.4 333.9 453.5 338.5 454.6 338.6 455.9 337.9 459.6 336.1 462.4 335.2 464 335.1 466.1 334.9 470.4 335.3 473.5 336.2 478.8 338.7 481.1 339.4 484.9 340.1 493.2 341.4 494.9 341 496.5 339.9 497.1 339.3 497.8 338.5 498.3 337 502.4 313.9"/>
  <polyline class="cls-1" points="464 335.1 463.8 333.1 464 332 466.2 328.2 460.1 323.9 459.5 321.1 459 318.8 466.8 307.7"/>
  <polyline class="cls-1" points="394.6 335.6 404.8 342.5 403 345.1 423.4 359.3 426.6 362.5 427 363.9 427 367.2 426.1 369.4 423.9 372.4"/>
  <polyline class="cls-1" points="495.3 348.3 480.7 345.7 476.3 344.4 469.7 341.6 466.5 341 466.5 338.9 464.7 338.9 460.5 339.8 456.7 341.7 454.4 343.9 449.2 351.3 452.8 353.8 437.8 375"/>
  <polyline class="cls-1" points="479.6 383.4 491.5 385.6 498.5 375.6"/>
  <polyline class="cls-1" points="497.1 339.3 496.1 344.1 495.3 348.3 495.1 353.1 495 356 494.7 360 494.9 363.3 495.7 367.8 496.8 371.6 498.5 375.6 501.9 380.2 504 383 507.4 386 517.2 393 521.6 397.6 524.8 401.9 526.2 404.9 527.8 408.3 529.3 414.3 529.6 423.6 528.5 429.2 526.9 433.3 524.3 437.2 516 448.6 512.9 450.1"/>
  <polyline class="cls-1" points="181.5 341.5 181.3 344.9 168.5 361.8 168.5 379.8"/>
  <polyline class="cls-1" points="181.3 344.9 184.3 347.1 185.9 346.7 187.8 344.1 202.9 354.6 217.9 354.5 222.8 357.8 226.7 358.3 227 358.6"/>
  <line class="cls-1" x1="189.9" y1="195.8" x2="192.6" y2="202.1"/>
  <polyline class="cls-1" points="343.4 374.6 342.3 373.8 342.5 373.4"/>
  <polyline class="cls-1" points="348.7 378.1 345.5 375.9 343.4 374.6"/>
  <polyline class="cls-1" points="342.5 373.4 343 372.7 343.7 371.7"/>
  <line class="cls-1" x1="343.7" y1="371.7" x2="345.6" y2="369.1"/>
  <polyline class="cls-1" points="345.6 369.1 346.1 368.4 346.5 367.9 346.9 367.3"/>
  <polyline class="cls-1" points="346.9 367.3 346.9 366 345.9 364.4 344.3 363.9 343.2 364.3 340.7 362.7 338.5 360.9 340 358.7 319.3 344 315.9 341.6 311.5 347.7"/>
  <polyline class="cls-1" points="321.1 448.7 322.6 457.6 324 465.2"/>
  <polyline class="cls-1" points="356.6 537 368.3 532.1 363.4 524.9 358.5 526.4 343.5 520.5 355.2 503.3 366 510.3 373.5 518.1 371.5 522.1 375.3 529.2 389 523.4 391.7 522.1 398.8 518.8 398.5 518.4 390.5 522.1 385 518 376.6 513.1"/>
  <line class="cls-1" x1="379.5" y1="507.9" x2="376.6" y2="513.1"/>
  <polyline class="cls-1" points="355.2 503.3 355.6 501.8 357.5 502.3 359.7 502.8 362.2 499.6 363.9 497.1"/>
  <polyline class="cls-1" points="366.9 446.3 368.2 444.7 369.5 443 371.4 440.3 371.2 437.9 371.2 435.1"/>
  <polyline class="cls-1" points="382.8 424.8 386.5 428.6 393 432.6"/>
  <polyline class="cls-1" points="322.5 336.6 319.5 334.6 318.8 334.8 317.8 336.3 318 337.1 322.2 340 326.4 342.8 327.1 342.7 328.1 341.2 328.1 340.3 324 337.5 334.4 322.4 338.3 325.2 339.3 325.3 340.3 323.7 340.3 322.7 336 319.8 332.1 317.3 331.1 317.3 330.1 318.9 330.2 319.7 333.1 321.7"/>
  <line class="cls-1" x1="344.9" y1="415.1" x2="349.8" y2="407.3"/>
  <polyline class="cls-1" points="182.9 339.8 183.2 326.8 184.8 326.8 185.7 308.8 184 308.8 183 308.9 178.6 275.7"/>
  <line class="cls-1" x1="194.2" y1="377.8" x2="168.5" y2="380.7"/>
  <line class="cls-1" x1="270.1" y1="376.5" x2="276.3" y2="380.8"/>
  <line class="cls-1" x1="325" y1="395.9" x2="292.2" y2="446.6"/>
  <line class="cls-1" x1="268.8" y1="409.4" x2="311.8" y2="451.7"/>
  <line class="cls-1" x1="279.4" y1="436.9" x2="298.8" y2="417"/>
  <polyline class="cls-1" points="289.7 417.4 291 416.2 292.6 414.5 293.6 412"/>
  <line class="cls-1" x1="283.9" y1="405.5" x2="325.1" y2="432.4"/>
</svg>