<?xml version="1.0" encoding="UTF-8"?><svg id="a" xmlns="http://www.w3.org/2000/svg" viewBox="0 0 42.5 135.74"><defs><style>.b{fill:#fff;}.c{fill:#006fe7;}.d{fill:#fcfcfc;}</style></defs><g><path class="c" d="M21.19,1.24h5.63c8.38,0,15.19,6.8,15.19,15.19V120.06c0,8.38-6.8,15.19-15.19,15.19h-5.63c-8.38,0-15.19-6.8-15.19-15.19V16.43C6,8.05,12.8,1.24,21.19,1.24Z"/><path d="M26.81,1.74c8.1,0,14.69,6.59,14.69,14.69V120.06c0,8.1-6.59,14.69-14.69,14.69h-5.63c-8.1,0-14.69-6.59-14.69-14.69V16.43C6.5,8.33,13.09,1.74,21.19,1.74h5.63m0-1h-5.63C12.52,.74,5.5,7.77,5.5,16.43V120.06c0,8.66,7.02,15.69,15.69,15.69h5.63c8.66,0,15.69-7.02,15.69-15.69V16.43c0-8.66-7.02-15.69-15.69-15.69h0Z"/></g><g><path class="d" d="M24.06,74.37c-3.96,0-7.19-3.23-7.19-7.19v-1.87c0-3.96,3.23-7.19,7.19-7.19s7.19,3.23,7.19,7.19v1.87c0,3.96-3.23,7.19-7.19,7.19Z"/><path d="M24.07,58.49c3.76,0,6.82,3.06,6.82,6.82v1.87c0,3.76-3.06,6.82-6.82,6.82s-6.82-3.06-6.82-6.82v-1.87c0-3.76,3.06-6.82,6.82-6.82m0-.75h0c-4.18,0-7.57,3.39-7.57,7.57v1.87c0,4.18,3.39,7.57,7.57,7.57h0c4.18,0,7.57-3.39,7.57-7.57v-1.87c0-4.18-3.39-7.57-7.57-7.57h0Z"/></g><g><path class="b" d="M24,31.24c-9.93,0-18-6.9-18-15.37S14.07,.5,24,.5s18,6.9,18,15.37-8.08,15.37-18,15.37Z"/><path d="M24,1c9.65,0,17.5,6.67,17.5,14.87s-7.85,14.87-17.5,14.87S6.5,24.07,6.5,15.87,14.35,1,24,1m0-1C13.78,0,5.5,7.11,5.5,15.87s8.28,15.87,18.5,15.87,18.5-7.11,18.5-15.87S34.22,0,24,0h0Z"/></g></svg>