<?xml version="1.0" encoding="UTF-8"?><svg id="a" xmlns="http://www.w3.org/2000/svg" viewBox="0 0 131 89.96"><defs><style>.b{fill:#fff;}</style></defs><path class="b" d="M64.98,89.96H0C0,59.98,0,29.99,0,0c43.67,0,87.33,0,131,0,0,29.99,0,59.98,0,89.96-21.83,0-43.67,0-65.5,0,.5-.32,.96-.7,1.49-.96,6.26-3.05,12.53-6.05,18.78-9.13,.97-.48,2.54-1.17,2.59-1.86,.23-3.19,1.86-5.91,2.58-8.81,1.03-4.11,.26-8.67,.26-13.4-8.37,4.04-16.26,7.88-24.21,11.61-.89,.42-2.27,.57-3.1,.18-8.59-4.03-17.12-8.19-25.67-12.32-5.15-2.49-10.29-4.99-15.83-7.67,0,7.14-.05,13.82,.08,20.49,.01,.64,1.04,1.48,1.78,1.85,7.18,3.55,14.41,6.98,21.6,10.5,6.39,3.13,12.75,6.33,19.12,9.5ZM.36,32.22c.57,.38,.83,.59,1.12,.74,20.78,10.05,41.57,20.1,62.39,30.07,.82,.39,2.19,.23,3.06-.18,6.78-3.18,13.51-6.48,20.25-9.75,1.21-.59,2.4-1.23,3.88-1.99-7.57-4.91-14.78-9.64-22.07-14.24-.7-.44-1.92-.24-2.86-.12-2.51,.33-4.79-1.13-5.34-3.54-.53-2.35,1.01-4.78,3.42-5.38,2.34-.58,5.09,.87,5.34,3.33,.21,2.03,1.4,2.79,2.79,3.68,6.9,4.42,13.81,8.81,20.64,13.33,.86,.57,1.72,1.84,1.75,2.82,.17,5.57,.08,11.15,.07,16.73,0,.52-.06,1.04-.18,1.55-1.16,5.18-2.34,10.36-3.55,15.7h9.05c-.36-2.34-.68-4.38-.99-6.42-.53-3.56,.36-5.27,3.57-6.82,1.26-.61,2.57-1.11,3.76-1.83,.58-.35,1.32-1.08,1.32-1.64,.09-6.66,.06-13.33,.06-20.42-3.66,1.69-6.89,3.18-10.17,4.7-.89-3.15,0-4.76,2.82-5.92,4.75-1.94,9.3-4.37,13.93-6.61,5.15-2.49,10.3-4.98,15.88-7.68-4.17-2.04-7.88-3.89-11.62-5.69-16.31-7.9-32.67-15.69-48.89-23.76-3.3-1.64-5.84-1.63-9.14,.01-14.96,7.47-30.08,14.64-45.13,21.93-4.98,2.41-9.94,4.86-15.17,7.42Z"/><path d="M64.98,89.96c-6.37-3.17-12.73-6.37-19.12-9.5-7.19-3.52-14.42-6.96-21.6-10.5-.74-.37-1.77-1.21-1.78-1.85-.13-6.68-.08-13.36-.08-20.49,5.54,2.69,10.68,5.18,15.83,7.67,8.54,4.13,17.07,8.29,25.67,12.32,.84,.39,2.22,.23,3.1-.18,7.94-3.73,15.83-7.57,24.21-11.61,0,4.73,.77,9.29-.26,13.4-.72,2.89-2.36,5.61-2.58,8.81-.05,.68-1.62,1.38-2.59,1.86-6.24,3.07-12.52,6.08-18.78,9.13-.53,.26-1,.63-1.49,.96h-.52Z"/><path d="M.36,32.22c5.23-2.56,10.19-5.01,15.17-7.42,15.05-7.29,30.17-14.46,45.13-21.93,3.3-1.65,5.83-1.66,9.14-.01,16.22,8.07,32.58,15.86,48.89,23.76,3.73,1.81,7.45,3.65,11.62,5.69-5.58,2.7-10.73,5.2-15.88,7.68-4.63,2.23-9.18,4.66-13.93,6.61-2.83,1.16-3.72,2.77-2.82,5.92,3.28-1.51,6.51-3.01,10.17-4.7,0,7.09,.03,13.76-.06,20.42,0,.57-.74,1.29-1.32,1.64-1.19,.72-2.5,1.22-3.76,1.83-3.21,1.55-4.1,3.26-3.57,6.82,.31,2.04,.63,4.08,.99,6.42h-9.05c1.21-5.33,2.39-10.51,3.55-15.7,.11-.5,.18-1.03,.18-1.55,.01-5.58,.09-11.16-.07-16.73-.03-.97-.89-2.25-1.75-2.82-6.83-4.52-13.74-8.92-20.64-13.33-1.39-.89-2.58-1.64-2.79-3.68-.25-2.46-3-3.91-5.34-3.33-2.41,.6-3.95,3.03-3.42,5.38,.55,2.41,2.83,3.87,5.34,3.54,.95-.12,2.16-.32,2.86,.12,7.29,4.6,14.5,9.33,22.07,14.24-1.48,.76-2.67,1.4-3.88,1.99-6.74,3.27-13.47,6.57-20.25,9.75-.87,.41-2.24,.57-3.06,.18C43.05,53.05,22.27,43,1.48,32.95c-.29-.14-.55-.36-1.12-.74Z"/></svg>