<?xml version="1.0" encoding="UTF-8"?><svg id="a" xmlns="http://www.w3.org/2000/svg" viewBox="0 0 123.75 84.56"><defs><style>.b{fill:#fff;}</style></defs><path class="b" d="M6.15,84.56H0C0,56.37,0,28.19,0,0c41.25,0,82.5,0,123.75,0V51.31c-.88-3.08-2.46-5.37-6.07-5.37-29.05,0-58.09,0-87.14,0-5.96,0-11.92,0-18.04,0-.05-.98-.11-1.81-.12-2.63-.05-12.22-.06-24.44-.2-36.66-.02-1.35-.52-2.87-1.28-3.98C9.49,.6,6.75,0,4.41,.86,2.06,1.72,.7,3.75,.7,6.49c0,12.71,0,25.41,0,38.12,0,11.14-.01,22.28,.01,33.42,0,3.55,1.41,5.3,4.81,6.23,.23,.06,.43,.2,.64,.3ZM44.54,21.63v17.14H119.96c0-2.27,0-4.54,0-6.82,.03-6.28-3.96-10.32-10.24-10.32-21.05,0-42.09,0-63.14,0-.65,0-1.3,0-2.04,0Zm-16.46,17.48c5.22,0,9.33-3.93,9.39-9,.07-5.08-4.15-9.16-9.44-9.13-5.02,.03-9.21,4.1-9.23,8.99-.02,5,4.17,9.13,9.28,9.14Z"/><path d="M6.15,84.56c-.21-.1-.42-.24-.64-.3-3.39-.93-4.8-2.68-4.81-6.23-.02-11.14-.01-22.28-.01-33.42,0-12.71,0-25.41,0-38.12,0-2.73,1.36-4.76,3.72-5.63C6.75,0,9.49,.6,10.91,2.66c.76,1.11,1.27,2.64,1.28,3.98,.14,12.22,.15,24.44,.2,36.66,0,.83,.07,1.65,.12,2.63,6.12,0,12.08,0,18.04,0,29.05,0,58.09,0,87.14,0,3.6,0,5.19,2.29,6.07,5.37v.72c-1.14,4.13-4,5.52-8.07,5.19-1.96-.16-3.94-.03-6.04-.03,0,.78,0,1.31,0,1.83,0,6.44,.02,12.87-.02,19.31-.02,2.76-1.44,4.8-3.73,5.62-.56,.2-1.12,.4-1.68,.59h-1.09c-4.66-1.77-5.36-2.81-5.36-7.87,0-5.78,0-11.55,0-17.33,0-.64,0-1.27,0-1.85H12.54c-.05,.79-.12,1.38-.12,1.97,.04,5.71,.1,11.43,.13,17.14,.02,5.04-.72,6.12-5.32,7.94h-1.09Z"/><path class="b" d="M7.24,84.56c4.6-1.83,5.34-2.9,5.32-7.94-.03-5.71-.09-11.43-.13-17.14,0-.59,.07-1.18,.12-1.97H97.76c0,.58,0,1.21,0,1.85,0,5.78,0,11.55,0,17.33,0,5.07,.71,6.1,5.36,7.87H7.24Z"/><path class="b" d="M104.21,84.56c.56-.2,1.12-.39,1.68-.59,2.29-.83,3.72-2.86,3.73-5.62,.04-6.44,.02-12.87,.02-19.31,0-.53,0-1.06,0-1.83,2.1,0,4.08-.13,6.04,.03,4.07,.33,6.92-1.06,8.07-5.19v32.52h-19.54Z"/><path d="M44.54,21.63c.74,0,1.39,0,2.04,0,21.05,0,42.09,0,63.14,0,6.27,0,10.27,4.04,10.24,10.32,0,2.27,0,4.55,0,6.82H44.54V21.63Z"/><path d="M28.07,39.11c-5.1,0-9.3-4.14-9.28-9.14,.02-4.89,4.21-8.97,9.23-8.99,5.29-.03,9.5,4.05,9.44,9.13-.07,5.07-4.17,9-9.39,9Z"/></svg>