<?xml version="1.0" encoding="UTF-8"?><svg id="a" xmlns="http://www.w3.org/2000/svg" viewBox="0 0 85 128.69"><defs><style>.b{fill:#fff;}</style></defs><path class="b" d="M85,22.16v106.53H0C0,85.8,0,42.9,0,0c20.63,0,41.27,0,61.9,0-3.86,1.27-7.75,2.49-11.59,3.83-5.22,1.83-10.42,3.71-15.6,5.64-7.01,2.61-14.01,5.23-20.97,7.95-2.9,1.13-5.72,2.48-8.52,3.85-.53,.26-1.07,1.05-1.13,1.65-.4,3.79-.71,7.59-.98,11.39-.28,4.05-.49,8.1-.72,12.16-.18,3.23-.33,6.46-.48,9.69-.17,3.63-.33,7.26-.48,10.88-.17,4.26-.33,8.53-.48,12.79-.16,4.7-.33,9.4-.47,14.1-.1,3.56-.21,7.12-.24,10.69-.04,4.61,.02,9.21-.05,13.82-.02,1.24,.25,2.18,1.21,3.01,.83,.72,1.48,1.63,2.24,2.44,1.92,2.05,3.76,4.1,6.91,4.41,3.26,.32,6.32-.13,9.25-1.46,3.05-1.39,6.01-3,9.09-4.34,7.89-3.46,15.8-6.87,23.72-10.24,5.48-2.33,11.01-4.57,16.51-6.85,2.87-1.19,5.77-2.34,8.59-3.64,1.57-.72,2.83-1.88,3.06-3.76,.39-3.31,.84-6.61,1.09-9.93,.33-4.36,.51-8.74,.73-13.11,.17-3.35,.33-6.7,.48-10.05,.17-3.79,.32-7.57,.49-11.36,.15-3.35,.32-6.7,.45-10.05,.18-4.54,.34-9.08,.5-13.63,.09-2.41,.16-4.82,.25-7.23,0-.16,.15-.32,.23-.48Z"/><path d="M85,22.16c-.08,.16-.22,.32-.23,.48-.09,2.41-.17,4.82-.25,7.23-.16,4.54-.32,9.08-.5,13.63-.13,3.35-.31,6.7-.45,10.05-.17,3.79-.32,7.57-.49,11.36-.15,3.35-.3,6.7-.48,10.05-.23,4.37-.4,8.75-.73,13.11-.25,3.32-.69,6.63-1.09,9.93-.22,1.88-1.49,3.04-3.06,3.76-2.82,1.3-5.72,2.44-8.59,3.64-5.5,2.29-11.03,4.52-16.51,6.85-7.93,3.37-15.84,6.78-23.72,10.24-3.07,1.35-6.03,2.95-9.09,4.34-2.93,1.34-5.99,1.78-9.25,1.46-3.15-.31-4.98-2.35-6.91-4.41-.75-.8-1.41-1.72-2.24-2.44-.96-.83-1.23-1.77-1.21-3.01,.07-4.61,0-9.21,.05-13.82,.03-3.56,.14-7.12,.24-10.69,.14-4.7,.3-9.4,.47-14.1,.15-4.26,.31-8.53,.48-12.79,.15-3.63,.31-7.26,.48-10.88,.15-3.23,.31-6.46,.48-9.69,.22-4.05,.43-8.11,.72-12.16,.27-3.8,.58-7.6,.98-11.39,.06-.6,.6-1.39,1.13-1.65,2.8-1.37,5.62-2.72,8.52-3.85,6.96-2.72,13.96-5.34,20.97-7.95,5.18-1.93,10.38-3.81,15.6-5.64,3.84-1.34,7.72-2.56,11.59-3.83,.4,0,.79,0,1.19,0,1.8,1.19,3.61,2.35,5.39,3.57,3.95,2.69,8.22,4.3,13.09,4.36,2.08,.03,2.53,.25,2.97,2.37,.11,.55,.3,1.08,.45,1.62v10.25Zm-3.1-6.62c.08,0,.16,0,.24,0,0-.24,0-.48,0-.71-.05-1.59-.35-1.84-1.86-1.38-5.3,1.61-10.6,3.21-15.88,4.87-6.76,2.13-13.51,4.3-20.26,6.48-4.35,1.4-8.7,2.83-13.02,4.31-.37,.13-.81,.66-.85,1.04-.3,2.53-.55,5.06-.74,7.6-.27,3.68-.5,7.36-.72,11.03-.18,3.07-.32,6.13-.48,9.2-.15,2.87-.32,5.74-.47,8.61-.16,2.91-.33,5.82-.47,8.73-.18,3.66-.31,7.33-.48,10.99-.15,3.23-.31,6.45-.47,9.68-.24,4.72-.46,9.44-.73,14.16-.07,1.21-.33,2.4-.44,3.6-.12,1.33-.24,2.67-.24,4,0,1.64,.52,1.94,2.04,1.35,2.56-1.01,5.13-2,7.69-3.02,5.84-2.31,11.69-4.6,17.5-6.97,3.7-1.51,7.35-3.13,11.03-4.7,4.39-1.88,8.76-3.78,13.17-5.6,1.05-.43,1.31-1.18,1.41-2.15,.07-.66,.18-1.32,.23-1.98,.33-3.99,.67-7.98,.95-11.97,.21-3.1,.33-6.21,.49-9.32,.16-2.99,.32-5.98,.47-8.97,.17-3.38,.32-6.77,.48-10.16,.15-3.11,.31-6.21,.47-9.32,.16-3.1,.33-6.2,.47-9.3,.17-3.76,.37-7.52,.46-11.28,.08-2.94,.02-5.88,.02-8.82ZM5.24,57.84c-.09,.41-.21,.72-.23,1.05-.1,1.81-.18,3.62-.24,5.43-.17,4.65-.38,9.3-.46,13.96-.08,4.88,0,9.76-.03,14.64-.01,1.82,.8,3.1,2.25,4.11,1.58,1.11,3.44,.96,5.17,1.1,2.68,.21,5.39,.09,8.08,.04,2.12-.04,3.21-.78,3.5-2.55,.43-2.61,.78-5.23,.99-7.87,.32-4.17,.53-8.34,.73-12.52,.2-4.23,.32-8.47,.49-12.7,.02-.54,.11-1.08,.19-1.62,.1-.63-.16-.92-.78-.83-2.07,.3-4.15,.59-6.22,.94-2.87,.48-5.7,.37-8.41-.74-1.67-.68-3.26-1.58-5.02-2.45Zm.94-30.2c-.17,2.25-.38,4.23-.45,6.21-.13,3.64-.22,7.28-.24,10.92-.01,2.21,.07,4.43,.24,6.63,.25,3.37,1.05,4.75,4.23,5.81,5.09,1.69,9.91,.41,14.69-1.38,.69-.26,.97-.75,1.04-1.36,.2-1.91,.35-3.82,.49-5.74,.13-1.77,.27-3.55,.34-5.32,.15-4.1,.28-8.21,.36-12.31,.02-1.17-.5-1.41-1.7-1.16-1.98,.4-3.97,.81-5.97,1.03-3.49,.39-6.73-.37-9.75-2.24-.88-.54-2.02-.68-3.28-1.08ZM23.33,111.97c0-3.06-.02-6.11,.01-9.17,0-.76-.24-1.1-1.03-1.05-1.45,.11-2.92,.07-4.35,.28-2.96,.42-5.84,.34-8.67-.72-1.16-.43-2.33-.88-3.53-1.15-.79-.18-1.71-.4-1.77,1.08-.1,2.54-.53,5.06-.64,7.6-.12,2.85,.05,5.72-.05,8.57-.1,2.83,1.31,4.66,3.62,5.92,2.49,1.36,5.13,1.69,7.91,.92,2.31-.64,4.66-1.17,6.98-1.76,1.06-.27,1.6-.8,1.54-2.07-.12-2.81-.04-5.64-.04-8.45ZM9.15,25.82c.52-.14,1.07-.24,1.57-.43,7.62-2.93,15.24-5.87,22.86-8.83,8.23-3.2,16.46-6.4,24.66-9.67,2.2-.88,4.31-2,6.44-3.05,.25-.12,.38-.51,.56-.77-.33-.15-.64-.34-.98-.43-.16-.04-.36,.1-.55,.16-5.66,1.85-11.34,3.67-16.98,5.56-5.79,1.94-11.58,3.91-17.33,5.95-7.04,2.5-14.04,5.07-21.06,7.64-.83,.3-1.71,.79-1.38,1.87,.32,1.04,.99,2.08,2.2,2.01Zm5,1.96c.07,.12,.14,.25,.21,.37,.57-.07,1.15-.06,1.7-.22,1.61-.46,3.22-.9,4.78-1.49,8.07-3.07,16.14-6.14,24.18-9.3,5.07-2,10.11-4.08,15.1-6.26,2.68-1.17,5.26-2.58,7.84-3.96,.33-.18,.41-.81,.61-1.23-.48-.11-1-.41-1.42-.3-.82,.22-1.57,.68-2.36,1-7.29,2.95-14.58,5.88-21.87,8.83-5.7,2.31-11.4,4.62-17.08,6.98-3.49,1.45-6.95,2.97-10.4,4.5-.49,.22-.87,.7-1.29,1.07ZM76.28,10.24c0-.13,0-.27,0-.4-.54-.18-1.1-.54-1.63-.5-1.08,.07-2.19,.23-3.22,.56-5.11,1.63-10.25,3.18-15.27,5.04-7.88,2.92-15.69,6.06-23.51,9.13-1.85,.73-3.66,1.56-5.46,2.39-.2,.09-.28,.44-.42,.67,.23,.04,.49,.16,.7,.1,2.41-.63,4.85-1.16,7.2-1.96,10.46-3.58,20.9-7.21,31.33-10.88,3.19-1.12,6.32-2.43,9.47-3.67,.29-.11,.55-.33,.82-.49Z"/><path class="b" d="M85,11.92c-.15-.54-.34-1.07-.45-1.62-.44-2.12-.89-2.34-2.97-2.37-4.86-.06-9.13-1.67-13.09-4.36C66.71,2.35,64.89,1.19,63.1,0c7.3,0,14.6,0,21.9,0V11.92Z"/><path class="b" d="M81.9,15.55c0,2.94,.06,5.88-.02,8.82-.1,3.76-.29,7.52-.46,11.28-.14,3.1-.32,6.2-.47,9.3-.16,3.11-.32,6.21-.47,9.32-.17,3.38-.31,6.77-.48,10.16-.15,2.99-.32,5.98-.47,8.97-.16,3.11-.27,6.22-.49,9.32-.27,3.99-.62,7.98-.95,11.97-.05,.66-.16,1.32-.23,1.98-.1,.96-.36,1.71-1.41,2.15-4.41,1.82-8.79,3.73-13.17,5.6-3.67,1.57-7.33,3.2-11.03,4.7-5.82,2.37-11.67,4.65-17.5,6.97-2.56,1.01-5.12,2.01-7.69,3.02-1.51,.59-2.03,.29-2.04-1.35,0-1.33,.12-2.67,.24-4,.11-1.2,.37-2.4,.44-3.6,.27-4.72,.49-9.44,.73-14.16,.16-3.23,.33-6.45,.47-9.68,.17-3.66,.31-7.33,.48-10.99,.14-2.91,.31-5.82,.47-8.73,.16-2.87,.32-5.74,.47-8.61,.16-3.07,.3-6.14,.48-9.2,.22-3.68,.45-7.36,.72-11.03,.19-2.54,.43-5.08,.74-7.6,.05-.39,.48-.92,.85-1.04,4.33-1.47,8.67-2.9,13.02-4.31,6.75-2.18,13.49-4.35,20.26-6.48,5.28-1.66,10.58-3.26,15.88-4.87,1.5-.46,1.8-.21,1.86,1.38,0,.24,0,.48,0,.71-.08,0-.16,0-.24,0Z"/><path class="b" d="M5.24,57.84c1.76,.87,3.35,1.76,5.02,2.45,2.71,1.11,5.54,1.22,8.41,.74,2.07-.34,4.14-.64,6.22-.94,.62-.09,.88,.2,.78,.83-.08,.54-.17,1.07-.19,1.62-.17,4.23-.29,8.47-.49,12.7-.2,4.18-.4,8.35-.73,12.52-.2,2.63-.56,5.26-.99,7.87-.29,1.77-1.38,2.52-3.5,2.55-2.7,.05-5.4,.17-8.08-.04-1.73-.14-3.59,0-5.17-1.1-1.45-1.02-2.26-2.29-2.25-4.11,.03-4.88-.05-9.76,.03-14.64,.08-4.65,.3-9.3,.46-13.96,.06-1.81,.15-3.62,.24-5.43,.02-.32,.14-.64,.23-1.05Z"/><path class="b" d="M6.18,27.64c1.26,.4,2.4,.54,3.28,1.08,3.02,1.86,6.26,2.63,9.75,2.24,2-.23,3.99-.64,5.97-1.03,1.21-.24,1.73-.01,1.7,1.16-.08,4.1-.21,8.21-.36,12.31-.06,1.78-.21,3.55-.34,5.32-.14,1.91-.29,3.83-.49,5.74-.06,.61-.35,1.1-1.04,1.36-4.78,1.79-9.6,3.07-14.69,1.38-3.18-1.05-3.98-2.43-4.23-5.81-.17-2.2-.25-4.42-.24-6.63,.02-3.64,.11-7.28,.24-10.92,.07-1.98,.28-3.95,.45-6.21Z"/><path class="b" d="M23.33,111.97c0,2.82-.08,5.64,.04,8.45,.05,1.26-.49,1.8-1.54,2.07-2.33,.59-4.67,1.12-6.98,1.76-2.78,.78-5.42,.44-7.91-.92-2.31-1.26-3.72-3.09-3.62-5.92,.1-2.85-.07-5.72,.05-8.57,.1-2.54,.53-5.06,.64-7.6,.06-1.49,.98-1.26,1.77-1.08,1.2,.27,2.37,.72,3.53,1.15,2.83,1.06,5.71,1.15,8.67,.72,1.43-.2,2.9-.17,4.35-.28,.79-.06,1.03,.28,1.03,1.05-.03,3.06-.01,6.11-.01,9.17Z"/><path class="b" d="M9.15,25.82c-1.22,.07-1.88-.97-2.2-2.01-.33-1.08,.55-1.57,1.38-1.87,7.01-2.57,14.02-5.15,21.06-7.64,5.76-2.04,11.54-4.01,17.33-5.95,5.65-1.89,11.32-3.71,16.98-5.56,.18-.06,.39-.2,.55-.16,.34,.09,.66,.28,.98,.43-.18,.26-.31,.64-.56,.77-2.13,1.05-4.23,2.17-6.44,3.05-8.2,3.27-16.43,6.47-24.66,9.67-7.61,2.96-15.23,5.9-22.86,8.83-.5,.19-1.05,.29-1.57,.43Z"/><path class="b" d="M14.15,27.78c.43-.36,.8-.85,1.29-1.07,3.45-1.54,6.91-3.06,10.4-4.5,5.68-2.36,11.38-4.67,17.08-6.98,7.29-2.95,14.58-5.88,21.87-8.83,.79-.32,1.54-.79,2.36-1,.42-.11,.94,.19,1.42,.3-.2,.42-.28,1.06-.61,1.23-2.58,1.38-5.16,2.79-7.84,3.96-5,2.18-10.03,4.26-15.1,6.26-8.04,3.16-16.11,6.23-24.18,9.3-1.56,.59-3.18,1.03-4.78,1.49-.54,.15-1.13,.15-1.7,.22-.07-.12-.14-.25-.21-.37Z"/><path class="b" d="M76.28,10.24c-.27,.17-.53,.38-.82,.49-3.15,1.24-6.28,2.54-9.47,3.67-10.43,3.67-20.87,7.3-31.33,10.88-2.35,.8-4.79,1.33-7.2,1.96-.21,.05-.46-.07-.7-.1,.14-.23,.22-.58,.42-.67,1.81-.83,3.61-1.66,5.46-2.39,7.83-3.08,15.63-6.21,23.51-9.13,5.02-1.86,10.16-3.41,15.27-5.04,1.03-.33,2.14-.49,3.22-.56,.53-.03,1.09,.32,1.63,.5,0,.13,0,.27,0,.4Z"/></svg>