<?xml version="1.0" encoding="UTF-8"?><svg id="a" xmlns="http://www.w3.org/2000/svg" viewBox="0 0 96 85.15"><defs><style>.b{fill:#fff;}</style></defs><path d="M24.42,0c15.54,0,31.08,0,46.61,0,.34,.14,.66,.33,1.01,.43,2.94,.81,4.9,2.7,5.98,5.5,2.32,6.03,4.65,12.05,6.89,18.12,.99,2.69,2.04,4.95,4.9,6.49,4.19,2.25,5.58,6.63,5.71,11.09,.23,8.36,.06,16.73,.07,25.09,0,1.13-.46,1.56-1.6,1.5-1.52-.07-3.05,.05-4.57-.04-1.31-.08-1.77,.33-1.75,1.7,.04,2.86,.09,5.74-.25,8.57-.42,3.49-3.63,6.25-6.88,6.36-3.66,.12-7.25-3.09-7.52-6.94-.2-2.76-.15-5.54-.13-8.31,0-1.03-.34-1.37-1.36-1.37-15.86,.02-31.71,.02-47.57,0-1.02,0-1.37,.31-1.37,1.35,.01,2.82,.03,5.64-.18,8.44-.26,3.6-3.65,6.75-7.07,6.83-3.56,.08-7.1-3.04-7.4-6.76-.22-2.8-.2-5.63-.19-8.44,0-1.1-.38-1.47-1.45-1.43-1.66,.06-3.33,.05-4.99,0-.45-.02-.88-.32-1.32-.5,0-8.88,0-17.75,0-26.63,.09-.49,.19-.98,.26-1.47,.7-4.76,3.01-8.33,7.51-10.37,.55-.25,1.07-.87,1.3-1.45,2.79-7.17,5.52-14.37,8.26-21.56,.97-2.53,2.6-4.44,5.15-5.48C23.12,.46,23.77,.24,24.42,0Zm-8.3,28.39c.93,.05,1.56,.1,2.19,.1,19.69,0,39.37,0,59.06,0,.32,0,.65,0,.97,0,.76-.01,1.09-.18,.74-1.09-2.34-6.02-4.62-12.06-6.92-18.09-.82-2.16-1.3-2.5-3.57-2.5-13.91,0-27.82,0-41.73,0-2.16,0-2.73,.4-3.51,2.41-1.55,4.05-3.11,8.09-4.65,12.15-.85,2.23-1.65,4.49-2.57,7.02Zm70.85,17.3c.12-4.63-2.63-8.3-6.32-8.89-3.15-.51-5.68,.62-7.42,3.21-2.1,3.12-2.15,6.47-.27,9.68,2.58,4.41,8.16,5.04,11.69,1.41,1.57-1.62,2.35-3.61,2.33-5.42Zm-78.99-.62c.02,5.79,5.15,9.75,10.22,7.89,2.96-1.09,5.08-4.36,5.11-7.88,.03-4.03-2.66-7.6-6.22-8.26-4.89-.91-9.13,2.93-9.11,8.25Z"/><path class="b" d="M0,67.67c.44,.17,.88,.48,1.32,.5,1.66,.06,3.33,.07,4.99,0,1.07-.04,1.46,.33,1.45,1.43-.01,2.81-.04,5.64,.19,8.44,.3,3.71,3.84,6.83,7.4,6.76,3.42-.07,6.8-3.23,7.07-6.83,.21-2.8,.19-5.63,.18-8.44,0-1.04,.35-1.36,1.37-1.35,15.86,.02,31.71,.02,47.57,0,1.02,0,1.37,.34,1.36,1.37-.02,2.77-.07,5.55,.13,8.31,.27,3.85,3.86,7.06,7.52,6.94,3.25-.1,6.46-2.86,6.88-6.36,.34-2.83,.29-5.71,.25-8.57-.02-1.37,.44-1.78,1.75-1.7,1.52,.09,3.05-.03,4.57,.04,1.13,.05,1.6-.37,1.6-1.5-.02-8.36,.16-16.73-.07-25.09-.12-4.46-1.51-8.84-5.71-11.09-2.86-1.53-3.91-3.8-4.9-6.49-2.24-6.06-4.56-12.09-6.89-18.12-1.08-2.8-3.04-4.69-5.98-5.5-.35-.1-.67-.28-1.01-.43,8.32,0,16.65,0,24.97,0V85.15c-32,0-64,0-96,0,0-5.82,0-11.65,0-17.47Z"/><path class="b" d="M24.42,0c-.64,.24-1.3,.46-1.93,.72-2.55,1.04-4.19,2.95-5.15,5.48-2.75,7.19-5.47,14.39-8.26,21.56-.22,.57-.75,1.2-1.3,1.45C3.27,31.24,.96,34.81,.26,39.57,.19,40.07,.09,40.56,0,41.05V0C8.14,0,16.28,0,24.42,0Z"/><path class="b" d="M16.12,28.39c.93-2.53,1.73-4.78,2.57-7.02,1.53-4.06,3.09-8.1,4.65-12.15,.77-2.02,1.35-2.41,3.51-2.41,13.91,0,27.82,0,41.73,0,2.27,0,2.75,.34,3.57,2.5,2.3,6.03,4.58,12.07,6.92,18.09,.35,.91,.03,1.08-.74,1.09-.32,0-.65,0-.97,0-19.69,0-39.37,0-59.06,0-.63,0-1.26-.06-2.19-.1Z"/><path class="b" d="M86.96,45.69c.02,1.8-.76,3.8-2.33,5.42-3.52,3.63-9.11,2.99-11.69-1.41-1.88-3.21-1.83-6.56,.27-9.68,1.75-2.59,4.28-3.72,7.42-3.21,3.69,.59,6.44,4.27,6.32,8.89Z"/><path class="b" d="M7.98,45.07c-.02-5.32,4.22-9.16,9.11-8.25,3.57,.66,6.25,4.23,6.22,8.26-.03,3.52-2.15,6.79-5.11,7.88-5.07,1.86-10.2-2.1-10.22-7.89Z"/></svg>