<?xml version="1.0" encoding="UTF-8"?><svg id="a" xmlns="http://www.w3.org/2000/svg" viewBox="0 0 121.63 79.97"><defs><style>.b{fill:#fff;}</style></defs><path class="b" d="M94.89,79.97H23.44c2.26-.62,3.04-2.2,2.92-4.41-.03-.6,0-1.21,0-1.81,0-14.44,0-28.89,0-43.33,0-.87,.07-1.73,.11-2.57h1.91c0,.79,0,1.47,0,2.16,.02,5.53-.03,11.05,.08,16.58,.06,3.02,2.74,4.5,5.11,2.98,1.19-.76,1.51-1.96,1.51-3.26,0-7.34,.06-14.68-.03-22.01-.06-5.09-3.47-8.42-8.57-8.48-5.58-.06-11.16-.07-16.74-.02-6.05,.06-9.26,3.31-9.28,9.36-.03,6.13-.03,12.26-.03,18.39,0,1.21-.03,2.42,.09,3.62,.16,1.71,1.48,2.89,3.16,2.96,1.69,.07,3.04-.98,3.39-2.69,.11-.54,.12-1.11,.12-1.66,0-5.48,0-10.96,0-16.44,0-.49,0-.99,0-1.47h2v1.76c0,15.28,.02,30.56-.03,45.84,0,2.2,.62,3.79,2.82,4.5H0c0-26.65,0-53.3,0-79.97H121.63V79.97h-15.3c2.32-.67,2.92-2.34,2.9-4.57-.06-5.52,0-11.05,0-16.58,0-.49,.04-.99,.07-1.64h6.36c-2.6-9.89-5.15-19.59-7.71-29.31,1.21-.44,1.76-.15,2.06,1,1.54,5.87,3.14,11.72,4.73,17.58,.6,2.22,2.26,3.31,4.23,2.82,1.91-.48,2.89-2.33,2.31-4.52-2.02-7.56-4.03-15.13-6.1-22.68-1.05-3.85-3.93-6.14-7.92-6.22-4.28-.09-8.56-.1-12.83-.01-4.57,.1-7.29,2.2-8.51,6.6-2.06,7.46-4.03,14.94-6,22.42-.55,2.09,.48,3.96,2.31,4.42,1.94,.48,3.57-.54,4.21-2.67,.42-1.42,.78-2.86,1.17-4.29,1.19-4.43,2.37-8.86,3.57-13.29,.39-1.43,.77-1.59,2.05-.96-2.54,9.65-5.08,19.31-7.69,29.19h6.5c0,.69,0,1.2,0,1.7,0,5.48,.06,10.96-.01,16.44-.03,2.23,.53,3.91,2.85,4.59Zm5.77-66.06c3.69-.02,6.81-3.2,6.77-6.88-.05-3.68-3.09-6.71-6.77-6.73-3.72-.03-6.83,3.06-6.83,6.8,0,3.71,3.12,6.83,6.83,6.81ZM24.55,7.04c-.02-3.7-3.03-6.72-6.73-6.74-3.74-.02-6.86,3.07-6.85,6.78,0,3.72,3.12,6.83,6.83,6.83,3.72,0,6.77-3.11,6.75-6.87ZM60.09,40.11c0-12.77,0-25.55,0-38.32,0-.69,.02-1.38-.95-1.34-1.01,.04-.82,.82-.82,1.45,0,25.5,0,51-.01,76.5,0,.68-.03,1.48,.92,1.28,.35-.07,.82-.81,.82-1.25,.04-12.77,.04-25.55,.04-38.32Z"/><path d="M94.89,79.97c-2.32-.68-2.88-2.36-2.85-4.59,.08-5.48,.02-10.96,.01-16.44,0-.5,0-1.01,0-1.7h-6.5c2.6-9.89,5.15-19.55,7.69-29.19-1.28-.63-1.66-.47-2.05,.96-1.2,4.42-2.38,8.86-3.57,13.29-.38,1.43-.74,2.87-1.17,4.29-.63,2.14-2.27,3.15-4.21,2.67-1.83-.46-2.86-2.33-2.31-4.42,1.97-7.48,3.94-14.96,6-22.42,1.22-4.4,3.94-6.5,8.51-6.6,4.28-.09,8.56-.08,12.83,.01,3.99,.09,6.86,2.37,7.92,6.22,2.07,7.55,4.08,15.11,6.1,22.68,.58,2.19-.39,4.04-2.31,4.52-1.97,.49-3.63-.6-4.23-2.82-1.59-5.86-3.19-11.71-4.73-17.58-.3-1.14-.85-1.44-2.06-1,2.56,9.72,5.11,19.42,7.71,29.31h-6.36c-.03,.65-.07,1.14-.07,1.64-.01,5.53-.07,11.05,0,16.58,.02,2.23-.58,3.9-2.9,4.57h-1.67c-2.65-.98-3.05-1.51-3.06-4.38-.03-5.52-.02-11.05-.01-16.57,0-.75-.02-1.44-1.03-1.45-1.02-.01-.87,.73-.87,1.37,0,5.48-.05,10.96,.02,16.43,.03,2.22-.58,3.89-2.86,4.6h-1.95Z"/><path d="M12,79.97c-2.2-.72-2.82-2.31-2.82-4.5,.05-15.28,.03-30.56,.03-45.84v-1.76h-2c0,.49,0,.98,0,1.47,0,5.48,0,10.96,0,16.44,0,.55,0,1.12-.12,1.66-.35,1.7-1.7,2.76-3.39,2.69-1.67-.07-2.99-1.24-3.16-2.96-.11-1.2-.09-2.41-.09-3.62,0-6.13,0-12.26,.03-18.39,.03-6.04,3.23-9.3,9.28-9.36,5.58-.05,11.16-.04,16.74,.02,5.1,.06,8.51,3.39,8.57,8.48,.09,7.34,.04,14.68,.03,22.01,0,1.3-.32,2.49-1.51,3.26-2.37,1.52-5.05,.03-5.11-2.98-.11-5.52-.06-11.05-.08-16.58,0-.69,0-1.37,0-2.16h-1.91c-.04,.83-.11,1.7-.11,2.57,0,14.44,0,28.89,0,43.33,0,.6-.04,1.21,0,1.81,.12,2.2-.66,3.79-2.92,4.41h-1.67c-2.64-1.03-3.07-1.65-3.07-4.55,0-7.75,0-15.49,0-23.24,0-.37,.12-.81-.04-1.1-.21-.38-.64-.63-.97-.93-.26,.3-.67,.57-.75,.92-.14,.57-.09,1.2-.09,1.8,0,7.51-.03,15.03,.01,22.54,.01,2.2-.56,3.92-2.91,4.56h-1.95Z"/><path class="b" d="M13.95,79.97c2.35-.64,2.93-2.35,2.91-4.56-.04-7.51-.02-15.03-.01-22.54,0-.6-.05-1.23,.09-1.8,.08-.35,.49-.61,.75-.92,.33,.31,.76,.56,.97,.93,.16,.29,.04,.72,.04,1.1,0,7.75,0,15.49,0,23.24,0,2.9,.42,3.52,3.07,4.55h-7.81Z"/><path class="b" d="M96.84,79.97c2.28-.71,2.89-2.38,2.86-4.6-.07-5.48-.02-10.96-.02-16.43,0-.64-.15-1.38,.87-1.37,1.01,0,1.03,.7,1.03,1.45,0,5.52-.02,11.05,.01,16.57,.02,2.87,.42,3.4,3.06,4.38h-7.81Z"/><path d="M100.65,13.91c-3.71,.02-6.84-3.1-6.83-6.81,0-3.74,3.11-6.83,6.83-6.8,3.68,.03,6.72,3.05,6.77,6.73,.05,3.69-3.08,6.86-6.77,6.88Z"/><path d="M24.55,7.04c.02,3.76-3.03,6.86-6.75,6.87-3.7,0-6.82-3.11-6.83-6.83,0-3.72,3.11-6.8,6.85-6.78,3.7,.02,6.71,3.04,6.73,6.74Z"/><path d="M60.09,40.11c0,12.77,0,25.55-.04,38.32,0,.44-.46,1.18-.82,1.25-.95,.19-.92-.6-.92-1.28,0-25.5,0-51,.01-76.5,0-.62-.19-1.41,.82-1.45,.96-.04,.95,.66,.95,1.34,0,12.77,0,25.55,0,38.32Z"/></svg>