<?xml version="1.0" encoding="UTF-8"?><svg id="a" xmlns="http://www.w3.org/2000/svg" viewBox="0 0 102 133.38"><defs><style>.b{fill:#fff;}</style></defs><path class="b" d="M102,133.38H0V0H102V133.38ZM.13,87.7s0,0-.01,0c0,2.39,0,4.78,0,7.18,0,6.66,.02,13.31-.01,19.97,0,.97,.22,1.41,1.3,1.36,1.87-.08,3.74,.06,5.61-.04,1.3-.07,1.73,.27,1.69,1.64-.07,3-.14,6.02,.17,8.99,.39,3.76,3.62,6.27,7.37,6.14,3.7-.13,6.68-2.94,6.88-6.7,.15-2.73,.1-5.48,.11-8.22,.01-1.86,0-1.83,1.85-1.83,11.35,0,22.69,0,34.04,0,6,0,12,.02,18-.02,1.07,0,1.45,.32,1.39,1.41-.07,1.47-.01,2.96,.04,4.43,.07,1.82,0,3.67,.34,5.44,.62,3.23,3.57,5.47,6.87,5.5,4.26,.04,7.27-3.17,7.37-7.94,.05-2.57,.04-5.13,0-7.7-.01-.86,.3-1.15,1.14-1.13,2,.04,4-.04,6,.03,1.07,.04,1.41-.3,1.41-1.4-.03-17.84-.02-35.68-.02-53.51,0-.48-.01-.96-.07-1.43-.62-5.05-1.25-10.09-1.86-15.14-1-8.15-1.97-16.31-2.98-24.47-.45-3.62-1.94-6.73-4.72-9.17-2.83-2.49-6.17-4.05-9.65-5.29C73.6,2.68,64.51,1.09,55.26,.33c-6.86-.56-13.62,.3-20.35,1.52-6.33,1.15-12.57,2.6-18.51,5.18-6.56,2.86-10.9,7.28-11.66,14.81-.94,9.25-2.2,18.47-3.29,27.71-.49,4.18-1.16,8.38-1.26,12.57-.2,8.52-.06,17.05-.06,25.58Z"/><path d="M.13,87.7c0-8.53-.14-17.06,.06-25.58,.1-4.2,.77-8.39,1.26-12.57,1.08-9.24,2.35-18.46,3.29-27.71,.76-7.52,5.1-11.95,11.66-14.81,5.94-2.58,12.18-4.04,18.51-5.18C41.63,.62,48.4-.24,55.26,.33c9.25,.76,18.35,2.35,27.11,5.48,3.48,1.24,6.82,2.81,9.65,5.29,2.78,2.45,4.27,5.55,4.72,9.17,1.02,8.15,1.99,16.31,2.98,24.47,.62,5.05,1.25,10.09,1.86,15.14,.06,.47,.07,.95,.07,1.43,0,17.84,0,35.68,.02,53.51,0,1.1-.34,1.44-1.41,1.4-2-.07-4,0-6-.03-.84-.02-1.15,.27-1.14,1.13,.04,2.57,.06,5.13,0,7.7-.1,4.76-3.11,7.98-7.37,7.94-3.29-.03-6.25-2.27-6.87-5.5-.34-1.77-.27-3.62-.34-5.44-.06-1.48-.12-2.96-.04-4.43,.06-1.09-.32-1.42-1.39-1.41-6,.04-12,.02-18,.02-11.35,0-22.69,0-34.04,0-1.85,0-1.84-.02-1.85,1.83-.02,2.74,.03,5.48-.11,8.22-.2,3.76-3.18,6.57-6.88,6.7-3.75,.13-6.97-2.38-7.37-6.14-.31-2.97-.24-5.99-.17-8.99,.03-1.37-.4-1.72-1.69-1.64-1.86,.11-3.74-.04-5.61,.04-1.08,.05-1.3-.39-1.3-1.36,.03-6.66,.01-13.31,.01-19.97,0-2.39,0-4.78,0-7.18,0,0,0,0,.01,0Zm50.79-23.12s0,0,0,0c3.87,0,7.74,0,11.61,0,8.57,0,17.13,0,25.7,.01,1.4,0,2.86-.1,3.58-1.4,.57-1.04,.94-2.36,.9-3.54-.07-2.16-.51-4.31-.79-6.47-1.06-8.06-2.07-16.12-3.19-24.17-.56-4.07-2.18-5.38-6.27-5.39-10.57-.01-21.13-.02-31.7-.02-10.61,0-21.22-.01-31.83,.01-3.44,0-5.03,1.35-5.71,4.68-.12,.6-.25,1.19-.33,1.79-.93,7.02-1.85,14.05-2.76,21.08-.38,2.93-.88,5.86-1.07,8.8-.21,3.12,1.34,4.61,4.43,4.61,12.48,0,24.96,0,37.44,0Zm-.05-54.23s0,0,0,.01c-2.3,0-4.6,0-6.9,0-4.69,.01-9.38,0-14.07,.07-1.85,.02-2.91,1.3-2.89,3.29,.01,1.95,1.02,3.13,2.85,3.19,2.26,.07,4.51,.04,6.77,.04,6.12,0,12.24,0,18.36,0,5.56,0,11.11,.04,16.67,.02,1.66,0,2.56-.74,3.02-2.19,.75-2.39-.7-4.42-3.23-4.43-6.86-.02-13.72,0-20.58,0ZM8.96,91.21c-.04,4.09,3.09,7.38,7,7.39,3.88,0,7-3.2,7.04-7.24,.04-4.24-3.12-7.72-7.02-7.73-3.86,0-6.98,3.36-7.02,7.58Zm69.86-.19c0,4.28,3,7.57,6.95,7.59,3.97,.03,7.09-3.33,7.08-7.62,0-3.97-3.18-7.31-6.97-7.34-3.85-.03-7.05,3.31-7.05,7.37Z"/><path class="b" d="M50.92,64.58c-12.48,0-24.96,0-37.44,0-3.09,0-4.64-1.49-4.43-4.61,.2-2.94,.69-5.87,1.07-8.8,.91-7.03,1.83-14.05,2.76-21.08,.08-.6,.2-1.2,.33-1.79,.69-3.32,2.28-4.67,5.71-4.68,10.61-.02,21.22-.01,31.83-.01,10.57,0,21.13,0,31.7,.02,4.1,0,5.71,1.32,6.27,5.39,1.12,8.05,2.13,16.12,3.19,24.17,.28,2.15,.72,4.3,.79,6.47,.04,1.18-.33,2.5-.9,3.54-.71,1.3-2.18,1.4-3.58,1.4-8.57-.02-17.13-.01-25.7-.01-3.87,0-7.74,0-11.61,0,0,0,0,0,0,0Z"/><path class="b" d="M50.87,10.34c6.86,0,13.72-.01,20.58,0,2.53,0,3.98,2.04,3.23,4.43-.46,1.45-1.36,2.18-3.02,2.19-5.56,.02-11.11-.01-16.67-.02-6.12,0-12.24,0-18.36,0-2.26,0-4.52,.02-6.77-.04-1.82-.05-2.83-1.24-2.85-3.19-.01-1.99,1.04-3.27,2.89-3.29,4.69-.06,9.38-.05,14.07-.07,2.3,0,4.6,0,6.9,0,0,0,0,0,0-.01Z"/><path class="b" d="M8.96,91.21c.04-4.22,3.15-7.59,7.02-7.58,3.9,0,7.07,3.49,7.02,7.73-.04,4.03-3.17,7.25-7.04,7.24-3.91,0-7.03-3.3-7-7.39Z"/><path class="b" d="M78.82,91.02c0-4.06,3.2-7.4,7.05-7.37,3.79,.03,6.96,3.37,6.97,7.34,0,4.29-3.1,7.65-7.08,7.62-3.94-.03-6.95-3.31-6.95-7.59Z"/></svg>