<?xml version="1.0" encoding="UTF-8"?><svg id="a" xmlns="http://www.w3.org/2000/svg" viewBox="0 0 109 102.72"><defs><style>.b{fill:#fff;}</style></defs><path class="b" d="M0,70.46V0C26.78,0,53.55,0,80.33,0c-.49,.1-.98,.19-1.47,.3-5.47,1.24-8.89,6.48-7.8,11.94,1.1,5.53,6.16,9.01,11.74,8.07,4.42-.75,7.82-4.5,8.28-9.15,.44-4.42-2.27-8.86-6.41-10.36-1.03-.37-2.13-.54-3.2-.81,9.18,0,18.35,0,27.53,0V102.72H0C0,92.99,0,83.24,0,73.5c.05,.04,.12,.07,.14,.12,1.02,3.06,3.25,4.35,6.35,4.42,1.87,.04,3.73,.16,5.59,.24,5.94,.24,11.88,.48,17.83,.72,2.16,.09,3.88-.79,5.19-2.46,2.97-3.77,5.92-7.57,8.87-11.36,.88-1.13,1.05-1.18,2.21-.35,4.9,3.47,9.79,6.95,14.69,10.42,1.17,.83,1.2,.93,.52,2.23-2.79,5.39-5.61,10.76-8.36,16.16-1.56,3.06-.4,6.64,2.54,8.14,3.08,1.58,6.49,.49,8.17-2.62,.35-.64,.67-1.29,1.01-1.93,3.4-6.57,6.83-13.12,10.18-19.71,1.61-3.17,.88-6.31-1.98-8.42-4.95-3.66-9.97-7.25-14.97-10.85-.95-.68-.96-.66-.18-1.86,3.14-4.82,6.28-9.63,9.42-14.45,1.01-1.55,2.02-3.11,3.09-4.76,.23,.37,.4,.62,.55,.89,1.79,3.16,3.59,6.32,5.36,9.49,1.03,1.85,2.55,2.8,4.69,2.85,3.19,.06,6.39,.18,9.58,.27,4.3,.11,8.6,.24,12.9,.3,2.47,.03,4.34-1.38,5.08-3.66,.69-2.13,0-4.48-2-5.73-.94-.59-2.17-.94-3.28-.98-5.28-.22-10.56-.32-15.84-.42-1.03-.02-1.7-.38-2.2-1.3-1.89-3.47-3.83-6.91-5.76-10.36-1.94-3.47-3.78-7-6.67-9.85-1.89-1.86-3.92-3.3-6.6-3.83-6.11-1.21-12.2-2.5-18.28-3.82-2.35-.51-4.38-.05-6.15,1.58-.23,.21-.49,.4-.73,.6-5.41,4.47-10.82,8.94-16.22,13.43-.95,.79-1.55,1.83-1.76,3.06-.35,2.08,.68,4.26,2.5,5.34,1.88,1.11,4.15,.92,6.01-.6,4.28-3.5,8.55-7.03,12.81-10.56,.7-.58,1.47-.86,2.37-.67,2.84,.6,5.68,1.22,8.53,1.81,.78,.16,.96,.42,.49,1.13-5.27,8.14-10.37,16.41-15.85,24.4-3.62,5.28-7.79,10.19-11.72,15.26-.57,.74-1.35,.98-2.27,.94-5.15-.23-10.3-.45-15.45-.67-.95-.04-1.9-.04-2.84-.14C3.92,65.56,1.3,66.9,0,70.46Z"/><path d="M0,70.46c1.3-3.56,3.92-4.89,7.58-4.52,.94,.1,1.9,.1,2.84,.14,5.15,.22,10.3,.44,15.45,.67,.91,.04,1.69-.2,2.27-.94,3.93-5.07,8.1-9.98,11.72-15.26,5.48-8,10.57-16.26,15.85-24.4,.46-.71,.28-.97-.49-1.13-2.85-.58-5.68-1.21-8.53-1.81-.9-.19-1.66,.09-2.37,.67-4.26,3.53-8.52,7.06-12.81,10.56-1.87,1.52-4.13,1.72-6.01,.6-1.82-1.08-2.86-3.26-2.5-5.34,.21-1.23,.81-2.27,1.76-3.06,5.4-4.48,10.81-8.95,16.22-13.43,.24-.2,.5-.39,.73-.6,1.77-1.63,3.79-2.09,6.15-1.58,6.08,1.32,12.17,2.61,18.28,3.82,2.68,.53,4.71,1.97,6.6,3.83,2.89,2.85,4.73,6.38,6.67,9.85,1.93,3.45,3.87,6.89,5.76,10.36,.5,.92,1.17,1.28,2.2,1.3,5.28,.1,10.57,.2,15.84,.42,1.12,.05,2.34,.4,3.28,.98,1.99,1.24,2.69,3.59,2,5.73-.74,2.28-2.62,3.69-5.08,3.66-4.3-.06-8.6-.19-12.9-.3-3.19-.08-6.39-.2-9.58-.27-2.13-.04-3.66-1-4.69-2.85-1.77-3.17-3.57-6.33-5.36-9.49-.15-.27-.32-.52-.55-.89-1.07,1.65-2.08,3.21-3.09,4.76-3.14,4.82-6.28,9.63-9.42,14.45-.78,1.2-.77,1.18,.18,1.86,5,3.61,10.01,7.19,14.97,10.85,2.86,2.11,3.59,5.26,1.98,8.42-3.36,6.59-6.78,13.14-10.18,19.71-.33,.64-.66,1.29-1.01,1.93-1.68,3.1-5.09,4.19-8.17,2.62-2.94-1.5-4.09-5.08-2.54-8.14,2.75-5.4,5.57-10.78,8.36-16.16,.67-1.3,.65-1.4-.52-2.23-4.89-3.48-9.79-6.95-14.69-10.42-1.16-.82-1.34-.78-2.21,.35-2.95,3.79-5.9,7.59-8.87,11.36-1.31,1.67-3.03,2.55-5.19,2.46-5.94-.24-11.88-.48-17.83-.72-1.86-.08-3.73-.19-5.59-.24-3.1-.07-5.33-1.37-6.35-4.42-.02-.05-.09-.08-.14-.12,0-1.01,0-2.03,0-3.04Z"/><path d="M81.47,0c1.07,.26,2.17,.43,3.2,.81,4.14,1.51,6.85,5.94,6.41,10.36-.46,4.64-3.86,8.4-8.28,9.15-5.57,.94-10.63-2.53-11.74-8.07-1.09-5.47,2.33-10.7,7.8-11.94,.49-.11,.98-.2,1.47-.3,.38,0,.76,0,1.14,0Z"/></svg>